<svg width="1920" height="104" viewBox="0 0 1920 104" fill="none" xmlns="http://www.w3.org/2000/svg">
<path d="M890 0H1030V3H890V0Z" fill="#9BFEF9"/>
<path d="M1147 100H1800V103H1147V100Z" fill="#9BFEF9"/>
<path d="M120 100H773V103H120V100Z" fill="#9BFEF9"/>
<path d="M1030 0L1150.57 101.167L1148.64 103.465L1028.07 2.29813L1030 0Z" fill="#9BFEF9"/>
<path d="M2.64996 0L123.216 101.167L121.288 103.465L0.7216 2.29813L2.64996 0Z" fill="#9BFEF9"/>
<path d="M769.675 101.171L890.246 -7.67447e-05L892.175 2.29806L771.604 103.469L769.675 101.171Z" fill="#9BFEF9"/>
<path d="M1796.8 101.171L1917.37 -7.67447e-05L1919.3 2.29806L1798.73 103.469L1796.8 101.171Z" fill="#9BFEF9"/>
</svg>
